CalSansUI-Light.ufo
<glyph name="four" format="2">
  <advance width="550"/>
  <unicode hex="0034"/>
  <outline>
    <contour>
      <point x="339" y="0" type="line"/>
      <point x="424" y="0" type="line"/>
      <point x="424" y="713" type="line"/>
      <point x="374" y="713" type="line"/>
      <point x="30" y="237" type="line"/>
      <point x="30" y="210" type="line"/>
      <point x="507" y="210" type="line"/>
      <point x="507" y="286" type="line"/>
      <point x="146" y="286" type="line"/>
      <point x="146" y="287" type="line"/>
      <point x="158" y="296"/>
      <point x="169" y="305"/>
      <point x="176" y="316" type="curve" smooth="yes"/>
      <point x="299" y="491" type="line" smooth="yes"/>
      <point x="320" y="522"/>
      <point x="336" y="556"/>
      <point x="344" y="576" type="curve"/>
      <point x="346" y="576" type="line"/>
      <point x="344" y="564"/>
      <point x="341" y="528"/>
      <point x="340" y="495" type="curve"/>
    </contour>
  </outline>
</glyph>
<glyph name="equal" format="2">
  <advance width="596"/>
  <unicode hex="003D"/>
  <outline>
    <contour>
      <point x="82" y="381" type="line"/>
      <point x="514" y="381" type="line"/>
      <point x="514" y="453" type="line"/>
      <point x="82" y="453" type="line"/>
    </contour>
    <contour>
      <point x="82" y="181" type="line"/>
      <point x="514" y="181" type="line"/>
      <point x="514" y="253" type="line"/>
      <point x="82" y="253" type="line"/>
    </contour>
  </outline>
</glyph>
<glyph name="B" format="2">
  <advance width="618"/>
  <unicode hex="0042"/>
  <anchor x="316" y="0" name="bottom"/>
  <anchor x="312" y="700" name="top"/>
  <outline>
    <contour>
      <point x="82" y="0" type="line"/>
      <point x="336" y="0" type="line" smooth="yes"/>
      <point x="475" y="0"/>
      <point x="571" y="72"/>
      <point x="571" y="191" type="curve" smooth="yes"/>
      <point x="571" y="294"/>
      <point x="508" y="343"/>
      <point x="403" y="362" type="curve"/>
      <point x="403" y="367" type="line"/>
      <point x="500" y="390"/>
      <point x="532" y="448"/>
      <point x="532" y="516" type="curve" smooth="yes"/>
      <point x="532" y="632"/>
      <point x="450" y="700"/>
      <point x="311" y="700" type="curve" smooth="yes"/>
      <point x="82" y="700" type="line"/>
    </contour>
    <contour>
      <point x="166" y="76" type="line"/>
      <point x="166" y="318" type="line"/>
      <point x="327" y="318" type="line" smooth="yes"/>
      <point x="419" y="318"/>
      <point x="486" y="280"/>
      <point x="486" y="198" type="curve" smooth="yes"/>
      <point x="486" y="115"/>
      <point x="419" y="76"/>
      <point x="327" y="76" type="curve" smooth="yes"/>
    </contour>
    <contour>
      <point x="166" y="390" type="line"/>
      <point x="166" y="624" type="line"/>
      <point x="302" y="624" type="line" smooth="yes"/>
      <point x="394" y="624"/>
      <point x="447" y="588"/>
      <point x="447" y="507" type="curve" smooth="yes"/>
      <point x="447" y="422"/>
      <point x="394" y="390"/>
      <point x="302" y="390" type="curve" smooth="yes"/>
    </contour>
  </outline>
</glyph>
<glyph name="D" format="2">
  <advance width="712"/>
  <unicode hex="0044"/>
  <anchor x="319" y="0" name="bottom"/>
  <anchor x="128" y="349" name="center"/>
  <anchor x="337" y="700" name="top"/>
  <outline>
    <contour>
      <point x="82" y="0" type="line"/>
      <point x="292" y="0" type="line" smooth="yes"/>
      <point x="513" y="0"/>
      <point x="671" y="130"/>
      <point x="671" y="349" type="curve" smooth="yes"/>
      <point x="671" y="570"/>
      <point x="513" y="700"/>
      <point x="292" y="700" type="curve" smooth="yes"/>
      <point x="82" y="700" type="line"/>
    </contour>
    <contour>
      <point x="164" y="76" type="line"/>
      <point x="164" y="624" type="line"/>
      <point x="295" y="624" type="line" smooth="yes"/>
      <point x="466" y="624"/>
      <point x="587" y="525"/>
      <point x="587" y="349" type="curve" smooth="yes"/>
      <point x="587" y="174"/>
      <point x="466" y="76"/>
      <point x="295" y="76" type="curve" smooth="yes"/>
    </contour>
  </outline>
</glyph>
<glyph name="Y" format="2">
  <advance width="559"/>
  <unicode hex="0059"/>
  <anchor x="281" y="0" name="bottom"/>
  <anchor x="282" y="700" name="top"/>
  <anchor x="20" y="700" name="topleft"/>
  <outline>
    <contour>
      <point x="240" y="0" type="line"/>
      <point x="322" y="0" type="line"/>
      <point x="322" y="289" type="line"/>
      <point x="553" y="700" type="line"/>
      <point x="457" y="700" type="line"/>
      <point x="348" y="493" type="line" smooth="yes"/>
      <point x="306" y="413"/>
      <point x="288" y="366"/>
      <point x="284" y="354" type="curve"/>
      <point x="281" y="354" type="line"/>
      <point x="278" y="366"/>
      <point x="257" y="409"/>
      <point x="213" y="492" type="curve" smooth="yes"/>
      <point x="102" y="700" type="line"/>
      <point x="6" y="700" type="line"/>
      <point x="240" y="290" type="line"/>
    </contour>
  </outline>
</glyph>
<glyph name="Z" format="2">
  <advance width="639"/>
  <unicode hex="005A"/>
  <anchor x="320" y="0" name="bottom"/>
  <anchor x="320" y="350" name="center"/>
  <anchor x="320" y="700" name="top"/>
  <outline>
    <contour>
      <point x="42" y="0" type="line"/>
      <point x="593" y="0" type="line"/>
      <point x="593" y="76" type="line"/>
      <point x="168" y="76" type="line"/>
      <point x="168" y="79" type="line"/>
      <point x="181" y="88"/>
      <point x="194" y="103"/>
      <point x="221" y="141" type="curve" smooth="yes"/>
      <point x="593" y="685" type="line"/>
      <point x="593" y="700" type="line"/>
      <point x="61" y="700" type="line"/>
      <point x="61" y="624" type="line"/>
      <point x="460" y="624" type="line"/>
      <point x="460" y="621" type="line"/>
      <point x="447" y="612"/>
      <point x="434" y="597"/>
      <point x="409" y="560" type="curve" smooth="yes"/>
      <point x="42" y="15" type="line"/>
    </contour>
  </outline>
</glyph>
<glyph name="backslash" format="2">
  <advance width="469"/>
  <unicode hex="005C"/>
  <outline>
    <contour>
      <point x="338" y="-13" type="line"/>
      <point x="412" y="-13" type="line"/>
      <point x="138" y="740" type="line"/>
      <point x="62" y="740" type="line"/>
    </contour>
  </outline>
</glyph>
<glyph name="w" format="2">
  <advance width="785"/>
  <unicode hex="0077"/>
  <anchor x="393" y="0" name="bottom"/>
  <anchor x="393" y="490" name="top"/>
  <outline>
    <contour>
      <point x="176" y="0" type="line"/>
      <point x="272" y="0" type="line"/>
      <point x="366" y="306" type="line" smooth="yes"/>
      <point x="382" y="357"/>
      <point x="387" y="391"/>
      <point x="390" y="422" type="curve"/>
      <point x="396" y="422" type="line"/>
      <point x="399" y="392"/>
      <point x="404" y="356"/>
      <point x="420" y="306" type="curve" smooth="yes"/>
      <point x="516" y="0" type="line"/>
      <point x="609" y="0" type="line"/>
      <point x="768" y="490" type="line"/>
      <point x="681" y="490" type="line"/>
      <point x="590" y="184" type="line" smooth="yes"/>
      <point x="579" y="147"/>
      <point x="568" y="97"/>
      <point x="567" y="68" type="curve"/>
      <point x="561" y="68" type="line"/>
      <point x="559" y="97"/>
      <point x="548" y="146"/>
      <point x="536" y="185" type="curve" smooth="yes"/>
      <point x="441" y="490" type="line"/>
      <point x="346" y="490" type="line"/>
      <point x="252" y="185" type="line" smooth="yes"/>
      <point x="240" y="146"/>
      <point x="231" y="98"/>
      <point x="230" y="68" type="curve"/>
      <point x="224" y="68" type="line"/>
      <point x="221" y="99"/>
      <point x="210" y="145"/>
      <point x="198" y="184" type="curve" smooth="yes"/>
      <point x="108" y="490" type="line"/>
      <point x="17" y="490" type="line"/>
    </contour>
  </outline>
</glyph>
<glyph name="braceleft" format="2">
  <advance width="450"/>
  <unicode hex="007B"/>
  <outline>
    <contour>
      <point x="330" y="-224" type="curve" smooth="yes"/>
      <point x="350" y="-224"/>
      <point x="369" y="-223"/>
      <point x="388" y="-220" type="curve"/>
      <point x="388" y="-155" type="line"/>
      <point x="372" y="-159"/>
      <point x="358" y="-161"/>
      <point x="335" y="-161" type="curve" smooth="yes"/>
      <point x="274" y="-161"/>
      <point x="244" y="-126"/>
      <point x="244" y="-55" type="curve" smooth="yes"/>
      <point x="244" y="127" type="line" smooth="yes"/>
      <point x="244" y="241"/>
      <point x="151" y="270"/>
      <point x="133" y="272" type="curve"/>
      <point x="133" y="279" type="line"/>
      <point x="151" y="281"/>
      <point x="244" y="310"/>
      <point x="244" y="424" type="curve" smooth="yes"/>
      <point x="244" y="585" type="line" smooth="yes"/>
      <point x="244" y="656"/>
      <point x="274" y="691"/>
      <point x="335" y="691" type="curve" smooth="yes"/>
      <point x="358" y="691"/>
      <point x="372" y="689"/>
      <point x="388" y="685" type="curve"/>
      <point x="388" y="750" type="line"/>
      <point x="369" y="753"/>
      <point x="350" y="754"/>
      <point x="330" y="754" type="curve" smooth="yes"/>
      <point x="225" y="754"/>
      <point x="175" y="686"/>
      <point x="175" y="593" type="curve" smooth="yes"/>
      <point x="175" y="428" type="line" smooth="yes"/>
      <point x="175" y="365"/>
      <point x="148" y="311"/>
      <point x="68" y="307" type="curve"/>
      <point x="68" y="244" type="line"/>
      <point x="145" y="242"/>
      <point x="175" y="189"/>
      <point x="175" y="122" type="curve" smooth="yes"/>
      <point x="175" y="-63" type="line" smooth="yes"/>
      <point x="175" y="-156"/>
      <point x="225" y="-224"/>
    </contour>
  </outline>
</glyph>
<glyph name="yen" format="2">
  <advance width="579"/>
  <unicode hex="00A5"/>
  <anchor x="291.0" y="30.0" name="bottom"/>
  <anchor x="292.0" y="669.59" name="top"/>
  <anchor x="30.0" y="669.59" name="topleft"/>
  <outline>
    <contour>
      <point x="50" y="281" type="line"/>
      <point x="538" y="281" type="line"/>
      <point x="538" y="353" type="line"/>
      <point x="50" y="353" type="line"/>
    </contour>
    <contour>
      <point x="50" y="160" type="line"/>
      <point x="538" y="160" type="line"/>
      <point x="538" y="232" type="line"/>
      <point x="50" y="232" type="line"/>
    </contour>
    <component base="Y" yScale="0.9137" xOffset="10" yOffset="30"/>
  </outline>
</glyph>
<glyph name="OE" format="2">
  <advance width="1121"/>
  <unicode hex="0152"/>
  <anchor x="653" y="0" name="bottom"/>
  <anchor x="960" y="0" name="ogonek"/>
  <anchor x="653" y="700" name="top"/>
  <outline>
    <contour>
      <point x="692" y="203" type="curve"/>
      <point x="627" y="113" type="line"/>
      <point x="662" y="113" type="line"/>
      <point x="666" y="587" type="line"/>
      <point x="638" y="587" type="line"/>
      <point x="692" y="492" type="line"/>
      <point x="642" y="634"/>
      <point x="544" y="713"/>
      <point x="389" y="713" type="curve" smooth="yes"/>
      <point x="183" y="713"/>
      <point x="41" y="550"/>
      <point x="41" y="349" type="curve" smooth="yes"/>
      <point x="41" y="148"/>
      <point x="183" y="-13"/>
      <point x="389" y="-13" type="curve" smooth="yes"/>
      <point x="544" y="-13"/>
      <point x="642" y="67"/>
    </contour>
    <contour>
      <point x="389" y="63" type="curve" smooth="yes"/>
      <point x="231" y="63"/>
      <point x="125" y="178"/>
      <point x="125" y="349" type="curve" smooth="yes"/>
      <point x="125" y="520"/>
      <point x="231" y="637"/>
      <point x="389" y="637" type="curve" smooth="yes"/>
      <point x="548" y="637"/>
      <point x="653" y="529"/>
      <point x="653" y="350" type="curve" smooth="yes"/>
      <point x="653" y="179"/>
      <point x="548" y="63"/>
    </contour>
    <component base="E" xOffset="571"/>
  </outline>
</glyph>
<glyph name="jdotless" format="2">
  <advance width="224"/>
  <unicode hex="0237"/>
  <anchor x="22" y="-233" name="bottom"/>
  <anchor x="36" y="-233" name="ogonek"/>
  <anchor x="112" y="490" name="top"/>
  <outline>
    <contour>
      <point x="7" y="-233" type="curve" smooth="yes"/>
      <point x="92" y="-233"/>
      <point x="152" y="-187"/>
      <point x="152" y="-84" type="curve" smooth="yes"/>
      <point x="152" y="490" type="line"/>
      <point x="72" y="490" type="line"/>
      <point x="72" y="-81" type="line" smooth="yes"/>
      <point x="72" y="-142"/>
      <point x="41" y="-162"/>
      <point x="-1" y="-162" type="curve" smooth="yes"/>
      <point x="-17" y="-162"/>
      <point x="-28" y="-160"/>
      <point x="-47" y="-154" type="curve"/>
      <point x="-60" y="-224" type="line"/>
      <point x="-36" y="-230"/>
      <point x="-15" y="-233"/>
    </contour>
  </outline>
</glyph>
<glyph name="guilsinglleft" format="2">
  <advance width="333"/>
  <unicode hex="2039"/>
  <outline>
    <contour>
      <point x="195" y="48" type="line"/>
      <point x="276" y="48" type="line"/>
      <point x="144" y="262" type="line"/>
      <point x="144" y="266" type="line"/>
      <point x="276" y="477" type="line"/>
      <point x="193" y="477" type="line"/>
      <point x="67" y="263" type="line"/>
    </contour>
  </outline>
</glyph>
<glyph name="dong" format="2">
  <advance width="586"/>
  <unicode hex="20AB"/>
  <anchor x="279.0" y="37.0" name="_bar"/>
  <outline>
    <contour>
      <point x="272" y="97" type="curve" smooth="yes"/>
      <point x="339" y="97"/>
      <point x="381" y="119"/>
      <point x="420" y="181" type="curve"/>
      <point x="426" y="181" type="line"/>
      <point x="426" y="107" type="line"/>
      <point x="502" y="107" type="line"/>
      <point x="502" y="700" type="line"/>
      <point x="422" y="700" type="line"/>
      <point x="422" y="450" type="line"/>
      <point x="415" y="450" type="line"/>
      <point x="379" y="508"/>
      <point x="334" y="531"/>
      <point x="272" y="531" type="curve" smooth="yes"/>
      <point x="148" y="531"/>
      <point x="50" y="442"/>
      <point x="50" y="313" type="curve" smooth="yes"/>
      <point x="50" y="185"/>
      <point x="148" y="97"/>
    </contour>
    <contour>
      <point x="272" y="167" type="curve" smooth="yes"/>
      <point x="192" y="167"/>
      <point x="130" y="228"/>
      <point x="130" y="314" type="curve" smooth="yes"/>
      <point x="130" y="400"/>
      <point x="192" y="461"/>
      <point x="272" y="461" type="curve" smooth="yes"/>
      <point x="364" y="461"/>
      <point x="423" y="396"/>
      <point x="423" y="313" type="curve" smooth="yes"/>
      <point x="423" y="231"/>
      <point x="364" y="167"/>
    </contour>
    <component base="strokeshortcomb" xScale="1.4862" xOffset="279" yOffset="-314"/>
    <component base="strokeshortcomb" xScale="0.8126" xOffset="439" yOffset="245"/>
  </outline>
</glyph>
<glyph name="tugrik" format="2">
  <advance width="591"/>
  <unicode hex="20AE"/>
  <outline>
    <contour>
      <point x="255" y="30" type="line"/>
      <point x="337" y="30" type="line"/>
      <point x="337" y="631" type="line"/>
      <point x="255" y="631" type="line"/>
    </contour>
    <contour>
      <point x="47" y="594" type="line"/>
      <point x="544" y="594" type="line"/>
      <point x="544" y="670" type="line"/>
      <point x="47" y="670" type="line"/>
    </contour>
    <contour>
      <point x="65" y="183" type="line"/>
      <point x="526" y="278" type="line"/>
      <point x="526" y="355" type="line"/>
      <point x="65" y="260" type="line"/>
    </contour>
    <contour>
      <point x="65" y="316" type="line"/>
      <point x="526" y="411" type="line"/>
      <point x="526" y="488" type="line"/>
      <point x="65" y="393" type="line"/>
    </contour>
  </outline>
</glyph>
<glyph name="peso" format="2">
  <advance width="602"/>
  <unicode hex="20B1"/>
  <outline>
    <contour>
      <point x="110" y="30" type="line"/>
      <point x="192" y="30" type="line"/>
      <point x="192" y="249" type="line"/>
      <point x="284" y="249" type="line" smooth="yes"/>
      <point x="411" y="249"/>
      <point x="512" y="324"/>
      <point x="512" y="461" type="curve" smooth="yes"/>
      <point x="512" y="597"/>
      <point x="410" y="670"/>
      <point x="284" y="670" type="curve" smooth="yes"/>
      <point x="110" y="670" type="line"/>
    </contour>
    <contour>
      <point x="192" y="325" type="line"/>
      <point x="192" y="594" type="line"/>
      <point x="276" y="594" type="line" smooth="yes"/>
      <point x="366" y="594"/>
      <point x="427" y="553"/>
      <point x="427" y="461" type="curve" smooth="yes"/>
      <point x="427" y="367"/>
      <point x="366" y="325"/>
      <point x="276" y="325" type="curve" smooth="yes"/>
    </contour>
    <contour>
      <point x="20" y="373" type="line"/>
      <point x="592" y="373" type="line"/>
      <point x="592" y="435" type="line"/>
      <point x="20" y="435" type="line"/>
    </contour>
    <contour>
      <point x="20" y="484" type="line"/>
      <point x="592" y="484" type="line"/>
      <point x="592" y="546" type="line"/>
      <point x="20" y="546" type="line"/>
    </contour>
  </outline>
</glyph>
<glyph name="guarani" format="2">
  <advance width="719"/>
  <unicode hex="20B2"/>
  <anchor x="370" y="653" name="_TopCurrency"/>
  <anchor x="368" y="40" name="bottom"/>
  <anchor x="488" y="48" name="ogonek"/>
  <anchor x="368" y="662" name="top"/>
  <outline>
    <contour>
      <point x="368" y="28" type="curve" smooth="yes"/>
      <point x="547" y="28"/>
      <point x="678" y="152"/>
      <point x="678" y="325" type="curve" smooth="yes"/>
      <point x="678" y="340"/>
      <point x="677" y="355"/>
      <point x="675" y="366" type="curve"/>
      <point x="336" y="366" type="line"/>
      <point x="336" y="300" type="line"/>
      <point x="630" y="301" type="line"/>
      <point x="598" y="322" type="line"/>
      <point x="596" y="188"/>
      <point x="503" y="106"/>
      <point x="369" y="106" type="curve" smooth="yes"/>
      <point x="229" y="106"/>
      <point x="125" y="206"/>
      <point x="125" y="350" type="curve" smooth="yes"/>
      <point x="125" y="494"/>
      <point x="220" y="596"/>
      <point x="369" y="596" type="curve" smooth="yes"/>
      <point x="437" y="596"/>
      <point x="503" y="580"/>
      <point x="546" y="528" type="curve"/>
      <point x="604" y="576" type="line"/>
      <point x="540" y="644"/>
      <point x="466" y="673"/>
      <point x="368" y="673" type="curve" smooth="yes"/>
      <point x="179" y="673"/>
      <point x="41" y="533"/>
      <point x="41" y="350" type="curve" smooth="yes"/>
      <point x="41" y="168"/>
      <point x="183" y="28"/>
    </contour>
    <component base="verticalTopCurrencycomb" xOffset="370"/>
    <component base="verticalBottomCurrencycomb" xOffset="370"/>
  </outline>
</glyph>
<glyph name="liraTurkish" format="2">
  <advance width="563"/>
  <unicode hex="20BA"/>
  <outline>
    <contour>
      <point x="42" y="303" type="line"/>
      <point x="503" y="398" type="line"/>
      <point x="503" y="475" type="line"/>
      <point x="42" y="380" type="line"/>
    </contour>
    <contour>
      <point x="42" y="430" type="line"/>
      <point x="503" y="525" type="line"/>
      <point x="503" y="602" type="line"/>
      <point x="42" y="507" type="line"/>
    </contour>
    <contour>
      <point x="132" y="20" type="line"/>
      <point x="234" y="20" type="line" smooth="yes"/>
      <point x="385" y="20"/>
      <point x="500" y="106"/>
      <point x="516" y="257" type="curve" smooth="yes"/>
      <point x="521" y="305" type="line"/>
      <point x="448" y="312" type="line"/>
      <point x="443" y="267" type="line" smooth="yes"/>
      <point x="430" y="148"/>
      <point x="353" y="96"/>
      <point x="235" y="96" type="curve" smooth="yes"/>
      <point x="214" y="96" type="line"/>
      <point x="214" y="680" type="line"/>
      <point x="132" y="680" type="line"/>
    </contour>
  </outline>
</glyph>
<glyph name="trademark" format="2">
  <advance width="840"/>
  <unicode hex="2122"/>
  <outline>
    <contour>
      <point x="368" y="315" type="line"/>
      <point x="425" y="315" type="line"/>
      <point x="425" y="505" type="line" smooth="yes"/>
      <point x="425" y="596"/>
      <point x="425" y="630"/>
      <point x="418" y="700" type="curve"/>
      <point x="393" y="692" type="line"/>
      <point x="567" y="315" type="line"/>
      <point x="595" y="315" type="line"/>
      <point x="772" y="695" type="line"/>
      <point x="742" y="667" type="line"/>
      <point x="735" y="603"/>
      <point x="734" y="572"/>
      <point x="734" y="488" type="curve" smooth="yes"/>
      <point x="734" y="315" type="line"/>
      <point x="795" y="315" type="line"/>
      <point x="795" y="700" type="line"/>
      <point x="713" y="700" type="line"/>
      <point x="622" y="505" type="line" smooth="yes"/>
      <point x="574" y="404"/>
      <point x="574" y="381"/>
      <point x="566" y="348" type="curve"/>
      <point x="599" y="348" type="line"/>
      <point x="592" y="381"/>
      <point x="590" y="403"/>
      <point x="541" y="505" type="curve" smooth="yes"/>
      <point x="451" y="700" type="line"/>
      <point x="368" y="700" type="line"/>
    </contour>
    <contour>
      <point x="142" y="315" type="line"/>
      <point x="204" y="315" type="line"/>
      <point x="204" y="670" type="line"/>
      <point x="179" y="644" type="line"/>
      <point x="321" y="644" type="line"/>
      <point x="321" y="700" type="line"/>
      <point x="25" y="700" type="line"/>
      <point x="25" y="644" type="line"/>
      <point x="167" y="644" type="line"/>
      <point x="142" y="670" type="line"/>
    </contour>
  </outline>
</glyph>
<glyph name="upDownArrow" format="2">
  <advance width="600"/>
  <unicode hex="2195"/>
  <outline>
    <contour>
      <point x="299" y="-24" type="line"/>
      <point x="522" y="206" type="line"/>
      <point x="466" y="261" type="line"/>
      <point x="346" y="128" type="line"/>
      <point x="340" y="130" type="line"/>
      <point x="340" y="608" type="line"/>
      <point x="346" y="610" type="line"/>
      <point x="468" y="476" type="line"/>
      <point x="524" y="531" type="line"/>
      <point x="301" y="761" type="line"/>
      <point x="78" y="531" type="line"/>
      <point x="134" y="476" type="line"/>
      <point x="254" y="609" type="line"/>
      <point x="260" y="607" type="line"/>
      <point x="260" y="129" type="line"/>
      <point x="254" y="127" type="line"/>
      <point x="132" y="261" type="line"/>
      <point x="76" y="206" type="line"/>
    </contour>
  </outline>
</glyph>
<glyph name="summation" format="2">
  <advance width="560"/>
  <unicode hex="2211"/>
  <outline>
    <contour>
      <point x="138" y="-127" type="curve" smooth="yes"/>
      <point x="353" y="253" type="line"/>
      <point x="138" y="607" type="line" smooth="yes"/>
      <point x="126" y="626"/>
      <point x="120" y="636"/>
      <point x="115" y="639" type="curve"/>
      <point x="117" y="643" type="line"/>
      <point x="122" y="641"/>
      <point x="136" y="642"/>
      <point x="160" y="642" type="curve" smooth="yes"/>
      <point x="518" y="642" type="line"/>
      <point x="518" y="700" type="line"/>
      <point x="20" y="700" type="line"/>
      <point x="20" y="685" type="line"/>
      <point x="290" y="237" type="line"/>
      <point x="290" y="263" type="line"/>
      <point x="20" y="-205" type="line"/>
      <point x="20" y="-220" type="line"/>
      <point x="518" y="-220" type="line"/>
      <point x="518" y="-162" type="line"/>
      <point x="160" y="-162" type="line" smooth="yes"/>
      <point x="146" y="-162"/>
      <point x="126" y="-160"/>
      <point x="118" y="-163" type="curve"/>
      <point x="115" y="-159" type="line"/>
      <point x="125" y="-152"/>
      <point x="132" y="-137"/>
    </contour>
  </outline>
</glyph>
<glyph name="approxequal" format="2">
  <advance width="596"/>
  <unicode hex="2248"/>
  <outline>
    <contour>
      <point x="82" y="181" type="line"/>
      <point x="154" y="211"/>
      <point x="226" y="211"/>
      <point x="298" y="181" type="curve" smooth="yes"/>
      <point x="367" y="152"/>
      <point x="442" y="151"/>
      <point x="514" y="181" type="curve"/>
      <point x="514" y="253" type="line"/>
      <point x="442" y="223"/>
      <point x="367" y="224"/>
      <point x="298" y="253" type="curve" smooth="yes"/>
      <point x="226" y="283"/>
      <point x="154" y="283"/>
      <point x="82" y="253" type="curve"/>
    </contour>
    <contour>
      <point x="82" y="381" type="line"/>
      <point x="154" y="411"/>
      <point x="226" y="411"/>
      <point x="298" y="381" type="curve" smooth="yes"/>
      <point x="367" y="352"/>
      <point x="442" y="351"/>
      <point x="514" y="381" type="curve"/>
      <point x="514" y="453" type="line"/>
      <point x="442" y="423"/>
      <point x="367" y="424"/>
      <point x="298" y="453" type="curve" smooth="yes"/>
      <point x="226" y="483"/>
      <point x="154" y="483"/>
      <point x="82" y="453" type="curve"/>
    </contour>
  </outline>
</glyph>
<glyph name="D.circled" format="2">
  <advance width="896"/>
  <unicode hex="24B9"/>
  <anchor x="433.748" y="120.0" name="bottom"/>
  <anchor x="301.576" y="354.0743" name="center"/>
  <anchor x="446.204" y="589.49" name="top"/>
  <outline>
    <contour>
      <point x="448" y="-50" type="curve" smooth="yes"/>
      <point x="671" y="-50"/>
      <point x="842" y="129"/>
      <point x="842" y="352" type="curve" smooth="yes"/>
      <point x="842" y="576"/>
      <point x="671" y="754"/>
      <point x="448" y="754" type="curve" smooth="yes"/>
      <point x="225" y="754"/>
      <point x="54" y="576"/>
      <point x="54" y="352" type="curve" smooth="yes"/>
      <point x="54" y="129"/>
      <point x="225" y="-50"/>
    </contour>
    <contour>
      <point x="448" y="14" type="curve" smooth="yes"/>
      <point x="263" y="14"/>
      <point x="122" y="166"/>
      <point x="122" y="352" type="curve" smooth="yes"/>
      <point x="122" y="537"/>
      <point x="263" y="689"/>
      <point x="448" y="689" type="curve" smooth="yes"/>
      <point x="634" y="689"/>
      <point x="774" y="537"/>
      <point x="774" y="352" type="curve" smooth="yes"/>
      <point x="774" y="166"/>
      <point x="634" y="14"/>
    </contour>
    <component base="D" xScale="0.692" yScale="0.6707" xOffset="213" yOffset="120"/>
  </outline>
</glyph>
<glyph name="blackSmallSquare" format="2">
  <advance width="357"/>
  <unicode hex="25AA"/>
  <outline>
    <contour>
      <point x="90" y="275" type="line"/>
      <point x="267" y="275" type="line"/>
      <point x="267" y="451" type="line"/>
      <point x="90" y="451" type="line"/>
    </contour>
  </outline>
</glyph>
<glyph name="heartWhiteSuit" format="2">
  <advance width="832"/>
  <unicode hex="2661"/>
  <outline>
    <contour>
      <point x="416" y="-13" type="curve"/>
      <point x="618" y="102"/>
      <point x="827" y="294"/>
      <point x="827" y="508" type="curve" smooth="yes"/>
      <point x="827" y="622"/>
      <point x="736" y="713"/>
      <point x="622" y="713" type="curve" smooth="yes"/>
      <point x="503" y="713"/>
      <point x="426" y="620"/>
      <point x="419" y="531" type="curve"/>
      <point x="413" y="531" type="line"/>
      <point x="406" y="621"/>
      <point x="329" y="713"/>
      <point x="210" y="713" type="curve" smooth="yes"/>
      <point x="96" y="713"/>
      <point x="5" y="622"/>
      <point x="5" y="508" type="curve" smooth="yes"/>
      <point x="5" y="294"/>
      <point x="214" y="102"/>
    </contour>
    <contour>
      <point x="416" y="45" type="curve"/>
      <point x="237" y="151"/>
      <point x="61" y="320"/>
      <point x="61" y="502" type="curve" smooth="yes"/>
      <point x="61" y="592"/>
      <point x="131" y="663"/>
      <point x="212" y="663" type="curve" smooth="yes"/>
      <point x="315" y="663"/>
      <point x="365" y="600"/>
      <point x="390" y="493" type="curve"/>
      <point x="442" y="493" type="line"/>
      <point x="467" y="600"/>
      <point x="502" y="663"/>
      <point x="620" y="663" type="curve" smooth="yes"/>
      <point x="701" y="663"/>
      <point x="771" y="592"/>
      <point x="771" y="502" type="curve" smooth="yes"/>
      <point x="771" y="320"/>
      <point x="595" y="151"/>
    </contour>
  </outline>
</glyph>
<glyph name="sparkles" format="2">
  <advance width="724"/>
  <unicode hex="2728"/>
  <outline>
    <contour>
      <point x="139" y="289" type="curve"/>
      <point x="147" y="452"/>
      <point x="157" y="460"/>
      <point x="272" y="463" type="curve"/>
      <point x="157" y="469"/>
      <point x="147" y="477"/>
      <point x="139" y="637" type="curve"/>
      <point x="131" y="477"/>
      <point x="121" y="469"/>
      <point x="6" y="463" type="curve"/>
      <point x="121" y="460"/>
      <point x="131" y="452"/>
    </contour>
    <contour>
      <point x="272" y="-19" type="curve"/>
      <point x="280" y="144"/>
      <point x="290" y="152"/>
      <point x="405" y="155" type="curve"/>
      <point x="290" y="161"/>
      <point x="280" y="169"/>
      <point x="272" y="329" type="curve"/>
      <point x="264" y="169"/>
      <point x="254" y="161"/>
      <point x="139" y="155" type="curve"/>
      <point x="254" y="152"/>
      <point x="264" y="144"/>
    </contour>
    <contour>
      <point x="473" y="68" type="curve"/>
      <point x="495" y="351"/>
      <point x="523" y="374"/>
      <point x="718" y="384" type="curve"/>
      <point x="523" y="399"/>
      <point x="495" y="420"/>
      <point x="473" y="700" type="curve"/>
      <point x="451" y="420"/>
      <point x="423" y="399"/>
      <point x="228" y="384" type="curve"/>
      <point x="423" y="374"/>
      <point x="451" y="351"/>
    </contour>
  </outline>
</glyph>
<glyph name="fl" format="2">
  <advance width="593"/>
  <unicode hex="FB02"/>
  <anchor x="155" y="0" name="bottom_1"/>
  <anchor x="242" y="700" name="top_1"/>
  <anchor x="481" y="0" name="bottom_2"/>
  <anchor x="481" y="393" name="center_2"/>
  <anchor x="521" y="0" name="ogonek_2"/>
  <anchor x="481" y="700" name="top_2"/>
  <anchor x="571" y="700" name="topright_2"/>
  <anchor x="392" y="0" name="caret_1"/>
  <outline>
    <contour>
      <point x="17" y="418" type="line"/>
      <point x="511" y="418" type="line"/>
      <point x="521" y="490" type="line"/>
      <point x="17" y="490" type="line"/>
    </contour>
    <component base="f"/>
    <component base="l" xOffset="369"/>
  </outline>
</glyph>
<glyph name="a.ss01" format="2">
  <advance width="610"/>
  <anchor x="293" y="0" name="bottom"/>
  <anchor x="460" y="0" name="ogonek"/>
  <anchor x="289" y="490" name="top"/>
  <outline>
    <contour>
      <point x="281" y="-13" type="curve" smooth="yes"/>
      <point x="373" y="-13"/>
      <point x="424" y="32"/>
      <point x="456" y="94" type="curve"/>
      <point x="462" y="94" type="line"/>
      <point x="462" y="0" type="line"/>
      <point x="538" y="0" type="line"/>
      <point x="538" y="490" type="line"/>
      <point x="462" y="490" type="line"/>
      <point x="462" y="399" type="line"/>
      <point x="456" y="399" type="line"/>
      <point x="424" y="459"/>
      <point x="369" y="503"/>
      <point x="281" y="503" type="curve" smooth="yes"/>
      <point x="141" y="503"/>
      <point x="36" y="396"/>
      <point x="36" y="244" type="curve" smooth="yes"/>
      <point x="36" y="92"/>
      <point x="141" y="-13"/>
    </contour>
    <contour>
      <point x="289" y="61" type="curve" smooth="yes"/>
      <point x="182" y="61"/>
      <point x="116" y="140"/>
      <point x="116" y="245" type="curve" smooth="yes"/>
      <point x="116" y="352"/>
      <point x="182" y="428"/>
      <point x="289" y="428" type="curve" smooth="yes"/>
      <point x="393" y="428"/>
      <point x="461" y="340"/>
      <point x="461" y="244" type="curve" smooth="yes"/>
      <point x="461" y="142"/>
      <point x="393" y="61"/>
    </contour>
  </outline>
</glyph>
<glyph name="cedi.tf" format="2">
  <advance width="596"/>
  <outline>
    <contour>
      <point x="338" y="17" type="curve" smooth="yes"/>
      <point x="442" y="17"/>
      <point x="530" y="59"/>
      <point x="590" y="132" type="curve"/>
      <point x="530" y="181" type="line"/>
      <point x="479" y="123"/>
      <point x="421" y="93"/>
      <point x="341" y="93" type="curve" smooth="yes"/>
      <point x="220" y="93"/>
      <point x="97" y="182"/>
      <point x="97" y="349" type="curve" smooth="yes"/>
      <point x="97" y="515"/>
      <point x="210" y="607"/>
      <point x="338" y="607" type="curve" smooth="yes"/>
      <point x="404" y="607"/>
      <point x="472" y="585"/>
      <point x="523" y="521" type="curve"/>
      <point x="584" y="573" type="line"/>
      <point x="521" y="648"/>
      <point x="435" y="683"/>
      <point x="338" y="683" type="curve" smooth="yes"/>
      <point x="164" y="683"/>
      <point x="10" y="553"/>
      <point x="10" y="349" type="curve" smooth="yes"/>
      <point x="10" y="145"/>
      <point x="166" y="17"/>
    </contour>
    <contour>
      <point x="290" y="-69" type="line"/>
      <point x="362" y="-69" type="line"/>
      <point x="362" y="775" type="line"/>
      <point x="290" y="775" type="line"/>
    </contour>
  </outline>
</glyph>
<glyph name="f_i.ss11" format="2">
  <advance width="584"/>
  <anchor x="472" y="0" name="bottom_1"/>
  <anchor x="434" y="0" name="ogonek_1"/>
  <anchor x="472" y="490" name="top_1"/>
  <anchor x="369" y="0" name="caret_1"/>
  <outline>
    <contour>
      <point x="117" y="0" type="line"/>
      <point x="197" y="0" type="line"/>
      <point x="197" y="532" type="line" smooth="yes"/>
      <point x="197" y="599"/>
      <point x="248" y="639"/>
      <point x="315" y="639" type="curve" smooth="yes"/>
      <point x="387" y="639"/>
      <point x="433" y="591"/>
      <point x="433" y="514" type="curve"/>
      <point x="394" y="546" type="line"/>
      <point x="550" y="546" type="line"/>
      <point x="512" y="517" type="line"/>
      <point x="512" y="637"/>
      <point x="436" y="713"/>
      <point x="315" y="713" type="curve" smooth="yes"/>
      <point x="202" y="713"/>
      <point x="117" y="643"/>
      <point x="117" y="536" type="curve" smooth="yes"/>
    </contour>
    <contour>
      <point x="17" y="418" type="line"/>
      <point x="360" y="418" type="line"/>
      <point x="360" y="490" type="line"/>
      <point x="17" y="490" type="line"/>
    </contour>
    <component base="idotless" xOffset="360"/>
  </outline>
</glyph>
<glyph name="hookabovecombviet.case" format="2">
  <advance width="300"/>
  <anchor x="0" y="700" name="_top"/>
  <anchor x="0" y="859" name="top"/>
  <outline>
    <contour>
      <point x="0" y="711" type="line"/>
      <point x="27" y="730"/>
      <point x="50" y="755"/>
      <point x="50" y="786" type="curve" smooth="yes"/>
      <point x="50" y="829"/>
      <point x="15" y="871"/>
      <point x="-48" y="871" type="curve" smooth="yes"/>
      <point x="-78" y="871"/>
      <point x="-99" y="865"/>
      <point x="-121" y="851" type="curve"/>
      <point x="-96" y="801" type="line"/>
      <point x="-84" y="809"/>
      <point x="-67" y="814"/>
      <point x="-51" y="814" type="curve" smooth="yes"/>
      <point x="-31" y="814"/>
      <point x="-12" y="801"/>
      <point x="-12" y="782" type="curve" smooth="yes"/>
      <point x="-12" y="767"/>
      <point x="-22" y="756"/>
      <point x="-36" y="749" type="curve"/>
    </contour>
  </outline>
</glyph>
<glyph name="lari.tf" format="2">
  <advance width="596"/>
  <outline>
    <contour>
      <point x="492" y="396" type="curve"/>
      <point x="576" y="396" type="line"/>
      <point x="564" y="557"/>
      <point x="479" y="673"/>
      <point x="311" y="673" type="curve" smooth="yes"/>
      <point x="135" y="673"/>
      <point x="43" y="530"/>
      <point x="43" y="366" type="curve" smooth="yes"/>
      <point x="43" y="253"/>
      <point x="96" y="157"/>
      <point x="175" y="109" type="curve"/>
      <point x="175" y="106" type="line"/>
      <point x="21" y="106" type="line"/>
      <point x="21" y="30" type="line"/>
      <point x="566" y="30" type="line"/>
      <point x="566" y="106" type="line"/>
      <point x="410" y="106" type="line" smooth="yes"/>
      <point x="233" y="106"/>
      <point x="127" y="219"/>
      <point x="127" y="366" type="curve" smooth="yes"/>
      <point x="127" y="500"/>
      <point x="183" y="597"/>
      <point x="311" y="597" type="curve" smooth="yes"/>
      <point x="433" y="597"/>
      <point x="482" y="522"/>
    </contour>
    <contour>
      <point x="334" y="775" type="line"/>
      <point x="334" y="395" type="line"/>
      <point x="404" y="395" type="line"/>
      <point x="404" y="775" type="line"/>
    </contour>
    <contour>
      <point x="218" y="775" type="line"/>
      <point x="218" y="395" type="line"/>
      <point x="288" y="395" type="line"/>
      <point x="288" y="775" type="line"/>
    </contour>
  </outline>
</glyph>
<glyph name="pi.ss10" format="2">
  <advance width="597"/>
  <outline>
    <contour>
      <point x="132" y="0" type="line"/>
      <point x="212" y="0" type="line"/>
      <point x="212" y="418" type="line"/>
      <point x="380" y="418" type="line"/>
      <point x="380" y="0" type="line"/>
      <point x="460" y="0" type="line"/>
      <point x="460" y="418" type="line"/>
      <point x="580" y="418" type="line"/>
      <point x="580" y="490" type="line"/>
      <point x="17" y="490" type="line"/>
      <point x="17" y="418" type="line"/>
      <point x="132" y="418" type="line"/>
    </contour>
  </outline>
</glyph>
<glyph name="three.numr" format="2">
  <advance width="322"/>
  <outline>
    <contour>
      <point x="155" y="308" type="curve" smooth="yes"/>
      <point x="225" y="308"/>
      <point x="282" y="349"/>
      <point x="282" y="427" type="curve" smooth="yes"/>
      <point x="282" y="475"/>
      <point x="253" y="509"/>
      <point x="219" y="521" type="curve"/>
      <point x="219" y="522" type="line"/>
      <point x="253" y="539"/>
      <point x="274" y="569"/>
      <point x="274" y="601" type="curve" smooth="yes"/>
      <point x="274" y="664"/>
      <point x="226" y="706"/>
      <point x="155" y="706" type="curve" smooth="yes"/>
      <point x="90" y="706"/>
      <point x="29" y="672"/>
      <point x="31" y="584" type="curve"/>
      <point x="84" y="584" type="line"/>
      <point x="82" y="638"/>
      <point x="114" y="658"/>
      <point x="156" y="658" type="curve" smooth="yes"/>
      <point x="194" y="658"/>
      <point x="220" y="636"/>
      <point x="220" y="596" type="curve" smooth="yes"/>
      <point x="220" y="555"/>
      <point x="185" y="536"/>
      <point x="144" y="536" type="curve" smooth="yes"/>
      <point x="99" y="536" type="line"/>
      <point x="99" y="490" type="line"/>
      <point x="143" y="490" type="line" smooth="yes"/>
      <point x="189" y="490"/>
      <point x="228" y="472"/>
      <point x="228" y="426" type="curve" smooth="yes"/>
      <point x="228" y="388"/>
      <point x="208" y="356"/>
      <point x="155" y="356" type="curve" smooth="yes"/>
      <point x="114" y="356"/>
      <point x="82" y="381"/>
      <point x="84" y="435" type="curve"/>
      <point x="30" y="435" type="line"/>
      <point x="27" y="347"/>
      <point x="90" y="308"/>
    </contour>
  </outline>
</glyph>
<glyph name="zero.numr" format="2">
  <advance width="336"/>
  <outline>
    <contour>
      <point x="168" y="308" type="curve" smooth="yes"/>
      <point x="249" y="308"/>
      <point x="303" y="369"/>
      <point x="303" y="448" type="curve" smooth="yes"/>
      <point x="303" y="572" type="line" smooth="yes"/>
      <point x="303" y="638"/>
      <point x="257" y="706"/>
      <point x="168" y="706" type="curve" smooth="yes"/>
      <point x="95" y="706"/>
      <point x="33" y="654"/>
      <point x="33" y="570" type="curve" smooth="yes"/>
      <point x="33" y="444" type="line" smooth="yes"/>
      <point x="33" y="365"/>
      <point x="89" y="308"/>
    </contour>
    <contour>
      <point x="168" y="357" type="curve" smooth="yes"/>
      <point x="117" y="357"/>
      <point x="88" y="396"/>
      <point x="88" y="450" type="curve" smooth="yes"/>
      <point x="88" y="570" type="line" smooth="yes"/>
      <point x="88" y="621"/>
      <point x="117" y="657"/>
      <point x="168" y="657" type="curve" smooth="yes"/>
      <point x="218" y="657"/>
      <point x="248" y="618"/>
      <point x="248" y="568" type="curve" smooth="yes"/>
      <point x="248" y="448" type="line" smooth="yes"/>
      <point x="248" y="396"/>
      <point x="219" y="357"/>
    </contour>
  </outline>
</glyph>
